<?xml version="1.0" encoding="utf-8"?>
<!-- Generator: Adobe Illustrator 16.0.3, SVG Export Plug-In . SVG Version: 6.00 Build 0)  -->
<!DOCTYPE svg PUBLIC "-//W3C//DTD SVG 1.1//EN" "http://www.w3.org/Graphics/SVG/1.1/DTD/svg11.dtd">
<svg version="1.1" id="Layer_1" xmlns="http://www.w3.org/2000/svg" xmlns:xlink="http://www.w3.org/1999/xlink" x="0px" y="0px"
	 width="100%" height="100%" viewBox="166 -1.75 245.75 104.25" enable-background="new 166 -1.75 245.75 104.25"
	 xml:space="preserve">
<path fill="#3F48CC" stroke="#3F48CC" stroke-miterlimit="10" d="M390.447,82.072c-37.761,34.27-82.181,10.049-124.38,3.549
	c-22.21-3.549-44.42-2.369-66.63-5.318c-14.44-2.361-25.54-7.682-28.88-23.631c-0.54-2.881-1.151-5.48-1.181-8.359
	c0.01-0.09-0.068-0.389-0.078-0.469c0.198,0.295-0.255-1.472-0.219-1.219c-0.01-0.1-0.042-0.243-0.063-0.344
	c-0.158-0.609-0.016-1.298-0.234-1.875c-0.05-0.211-0.035-0.473-0.125-0.684c-0.02-0.069-0.155-1.682-0.185-1.751
	c0.01,0.1,0.165,1.862,0.165,1.902c-0.01-0.091-0.03-0.31-0.08-0.681c-0.01-0.029-0.02-0.06-0.02-0.09
	c-0.81-13.4-0.29-27.72,11.46-36.06c14.44-10.05,36.1-7.091,52.2-4.729c17.21,2.359,34.43,6.5,52.2,5.909
	c21.1-1.18,41.64-6.5,62.74-5.909c19.99,0,47.2,3.549,58.86,24.219C416.546,46.623,404.886,69.072,390.447,82.072z"/>
<text transform="matrix(1 0 0 1 199.6882 60.6602)" fill="#FFFFFF" font-family="'CalisMTBol'" font-size="50.194">IO-Shop</text>
</svg>
